<svg width="64" height="67" viewBox="0 0 64 67" fill="none" xmlns="http://www.w3.org/2000/svg">
<circle cx="16" cy="14" r="14" fill="#0AA054"/>
<g clip-path="url(#clip0)">
<path d="M63.113 40.1849C62.2162 38.9319 60.7222 38.0899 59.2143 37.9874C57.9834 37.9045 56.8681 38.3201 56.0745 39.1601C55.9004 39.3444 55.7125 39.5467 55.5138 39.7635C54.6359 38.9592 53.4855 38.4417 52.3258 38.363C51.0944 38.2805 49.9794 38.6959 49.186 39.5357C47.4589 41.364 44.4006 44.9355 41.9988 47.7788C41.6856 47.5935 41.3505 47.4408 40.996 47.3262C39.848 46.8318 24.0225 40.0731 17.0077 40.0731C5.67626 40.0731 0.470477 46.1638 0.254475 46.4229C-0.0769015 46.8207 -0.0231512 47.4105 0.373476 47.743C0.770228 48.0757 1.36223 48.0236 1.69598 47.6278C1.70798 47.6137 2.92412 46.1897 5.40813 44.7865C7.69764 43.4935 11.5687 41.9518 17.0076 41.9518C23.7469 41.9518 40.1293 48.9983 40.2941 49.0694C40.5952 49.1993 40.9058 49.2987 41.1808 49.4822C41.4405 49.6554 41.6728 49.8693 41.8676 50.1132C42.2458 50.5871 42.4827 51.1733 42.5325 51.7781C42.6371 53.0451 41.926 54.2692 40.7781 54.8103C40.0542 55.1516 39.289 55.1618 38.5284 54.9535L28.2789 52.1306C27.7854 51.9946 27.2596 52.2935 27.1238 52.7867C26.9879 53.2802 27.2865 53.8058 27.7799 53.9417L38.0152 56.7607C39.2588 57.1444 40.6178 57.0189 41.7701 56.4146C42.9405 55.801 43.8019 54.7681 44.1954 53.5067C44.3239 53.0952 44.3964 52.6753 44.416 52.2557L47.165 51.9662C47.4082 51.9406 47.632 51.8211 47.7886 51.6331C47.8564 51.5517 54.597 43.4595 57.4403 40.45C58.6221 39.1985 60.7321 40.0856 61.5855 41.2779C62.8977 43.1113 61.267 45.1127 60.736 45.6825C58.1264 48.4823 53.3413 54.2507 52.4812 55.2905L33.0057 65.0282L22.9855 60.8091C22.5137 60.6105 21.9539 60.8384 21.7552 61.3104C21.5566 61.7821 21.7846 62.3419 22.2564 62.5405L32.6749 66.9272C32.9254 67.0328 33.2165 67.0232 33.4595 66.9017L53.499 56.8819C53.6163 56.8232 53.7199 56.7407 53.8034 56.6395C53.8584 56.5729 59.3358 49.9403 62.1105 46.9632C64.1527 44.7723 64.5372 42.1745 63.113 40.1849ZM46.5894 50.1381L44.1417 50.3958C43.9682 49.9046 43.718 49.4429 43.4025 49.0286C45.4484 46.6068 48.7729 42.709 50.5515 40.8263C51.0654 40.2821 51.7304 40.2051 52.1982 40.2378C52.9345 40.2879 53.6897 40.6353 54.2575 41.1606C51.4393 44.3422 47.6024 48.9247 46.5894 50.1381Z" fill="black"/>
<path d="M18.3737 58.8677L14.3661 57.1802C14.2507 57.1316 14.1267 57.1066 14.0015 57.1066H0.975757C0.457004 57.1066 0.036377 57.5271 0.036377 58.046C0.036377 58.5649 0.457004 58.9853 0.975757 58.9853H13.8117L17.6445 60.5991C18.1487 60.8115 18.7397 60.5355 18.9049 60.0157C19.0499 59.5595 18.8145 59.0532 18.3737 58.8677Z" fill="black"/>
<path d="M49.9399 34.3211L45.94 34.8926C49.1926 31.4077 51.012 26.8423 51.012 21.9749C51.012 11.5122 42.4998 3 32.0371 3C21.5743 3 13.0623 11.5122 13.0623 21.9749C13.0623 26.173 14.4055 30.1514 16.9468 33.4797C19.4063 36.7009 22.894 39.0905 26.7675 40.2081C27.2799 40.3557 27.8239 40.0335 27.9434 39.515C28.054 39.0356 27.7602 38.5393 27.2882 38.403C20.0183 36.3054 14.9409 29.5498 14.9409 21.9747C14.9409 12.5478 22.6103 4.87851 32.0371 4.87851C41.4641 4.87851 49.1334 12.5478 49.1334 21.9747C49.1334 26.6349 47.2834 30.9887 43.9982 34.1929V29.239C43.9982 28.7201 43.5777 28.2996 43.0588 28.2996C42.54 28.2996 42.1195 28.7201 42.1195 29.239V36.2528C42.1195 36.8144 42.6352 37.2627 43.1917 37.1828L50.2055 36.1808C50.7123 36.1084 51.0751 35.6248 51.0026 35.1181C50.9303 34.6118 50.446 34.2494 49.9399 34.3211Z" fill="black"/>
<path d="M32.0371 21.0351H31.0351C29.8956 21.0351 28.9686 20.108 28.9686 18.9686C28.9686 17.8291 29.8958 16.9019 31.0351 16.9019H35.043C35.5619 16.9019 35.9824 16.4814 35.9824 15.9626C35.9824 15.4437 35.5619 15.0232 35.043 15.0232H32.9764V13.9585C32.9764 13.4397 32.5559 13.0192 32.037 13.0192C31.5183 13.0192 31.0976 13.4397 31.0976 13.9585V15.0232H31.035C28.8596 15.0232 27.0898 16.7931 27.0898 18.9685C27.0898 21.1438 28.8596 22.9137 31.035 22.9137H32.037C33.1765 22.9137 34.1037 23.8409 34.1037 24.9802C34.1037 26.1196 33.1765 27.0467 32.037 27.0467H28.0291C27.5104 27.0467 27.0898 27.4672 27.0898 27.9861C27.0898 28.505 27.5104 28.9255 28.0291 28.9255H31.0976V29.9901C31.0976 30.509 31.5183 30.9295 32.037 30.9295C32.5559 30.9295 32.9764 30.509 32.9764 29.9901V28.8118C34.6997 28.3891 35.9823 26.8321 35.9823 24.9804C35.9824 22.805 34.2125 21.0351 32.0371 21.0351Z" fill="black"/>
</g>
<defs>
<clipPath id="clip0">
<rect width="64" height="64" fill="white" transform="translate(0 3)"/>
</clipPath>
</defs>
</svg>
