<svg width="64" height="64" viewBox="0 0 64 64" fill="none" xmlns="http://www.w3.org/2000/svg">
<circle cx="46" cy="31" r="10" fill="#0AA054"/>
<path d="M36.2667 20.2667C38.0309 20.2667 39.4667 21.7024 39.4667 23.4667H37.3333C37.3333 22.8789 36.8555 22.4 36.2667 22.4C35.6779 22.4 35.2 22.8789 35.2 23.4667H33.0667C33.0667 21.7024 34.5024 20.2667 36.2667 20.2667Z" fill="black"/>
<path d="M27.7333 20.2667C29.4976 20.2667 30.9333 21.7024 30.9333 23.4667H28.8C28.8 22.8789 28.3221 22.4 27.7333 22.4C27.1445 22.4 26.6667 22.8789 26.6667 23.4667H24.5333C24.5333 21.7024 25.9691 20.2667 27.7333 20.2667Z" fill="black"/>
<path d="M32 49.0667C34.3531 49.0667 36.2667 50.9803 36.2667 53.3333C36.2667 55.6864 34.3531 57.6 32 57.6C29.6469 57.6 27.7333 55.6864 27.7333 53.3333C27.7333 50.9803 29.6469 49.0667 32 49.0667ZM32 55.4667C33.1765 55.4667 34.1333 54.5099 34.1333 53.3333C34.1333 52.1568 33.1765 51.2 32 51.2C30.8235 51.2 29.8667 52.1568 29.8667 53.3333C29.8667 54.5099 30.8235 55.4667 32 55.4667Z" fill="black"/>
<path d="M6.4 61.8667V48C6.4 39.1776 13.5776 32 22.4 32H23.5616C23.1819 31.6661 22.8245 31.3099 22.4864 30.9333H21.3333C18.3925 30.9333 16 28.5408 16 25.6V23.7205C14.7147 22.8587 13.8667 21.3931 13.8667 19.7333C13.8667 18.0672 14.7211 16.5995 16.0128 15.7387C16.1547 7.03787 23.2651 0 32 0C40.7349 0 47.8453 7.03787 47.9872 15.7387C49.2789 16.5995 50.1333 18.0672 50.1333 19.7333C50.1333 22.3797 47.9797 24.5333 45.3333 24.5333H44.6069C44.1077 27.4891 42.5973 30.0992 40.4373 32H41.6C50.4224 32 57.6 39.1776 57.6 48V61.8667H64V64H0V61.8667H6.4ZM18.1333 25.6C18.1333 27.2181 19.3451 28.5451 20.9056 28.7563C20.1664 27.4709 19.648 26.0469 19.3931 24.5333H18.6667C18.4843 24.5333 18.3104 24.4992 18.1333 24.4789V25.6ZM16 19.7333C16 21.2032 17.1957 22.4 18.6667 22.4H19.2V17.0667H18.6667C17.1957 17.0667 16 18.2635 16 19.7333ZM44.8 22.4H45.3333C46.8043 22.4 48 21.2032 48 19.7333C48 18.2635 46.8043 17.0667 45.3333 17.0667H44.8V22.4ZM45.3333 14.9333C45.4987 14.9333 45.6544 14.9653 45.8155 14.9824C45.2907 7.8112 39.3024 2.13333 32 2.13333C24.6976 2.13333 18.7093 7.8112 18.1845 14.9824C18.3456 14.9653 18.5013 14.9333 18.6667 14.9333H19.3931C20.4128 8.8896 25.6704 4.26667 32 4.26667C38.3296 4.26667 43.5872 8.8896 44.6069 14.9333H45.3333ZM21.3344 17.04C29.0325 16.7691 34.1333 13.6213 34.1333 10.6667C34.1333 10.0779 34.6101 9.6 35.2 9.6C35.7899 9.6 36.2667 10.0779 36.2667 10.6667C36.2667 13.3323 39.0229 15.5413 42.6048 15.9328C42.0363 10.5824 37.4976 6.4 32 6.4C26.128 6.4 21.3493 11.1712 21.3344 17.04ZM42.6667 22.4V18.0736C39.3355 17.7845 36.5088 16.1781 35.0976 13.9285C32.8661 16.8853 27.6512 18.9664 21.3333 19.1787V22.4C21.3333 24.8032 22.1419 27.0144 23.4869 28.8H32V30.9333H25.6277C26.24 31.392 26.9003 31.7867 27.6043 32.1067C30.4032 33.3781 33.5979 33.3781 36.3979 32.1067C40.0885 30.4277 42.6667 26.7136 42.6667 22.4ZM35.2971 34.7541C34.2432 35.0357 33.1413 35.2 32 35.2C30.8587 35.2 29.7568 35.0357 28.7029 34.7541L32 41.3483L35.2971 34.7541ZM33.7259 42.6667H35.6075L39.8741 34.1333H37.9925L33.7259 42.6667ZM26.0075 34.1333H24.1259L28.3925 42.6667H30.2741L26.0075 34.1333ZM52.2667 48V61.8667H55.4667V48C55.4667 40.5707 49.5893 34.5056 42.2432 34.1664L37.9925 42.6667H46.9333C49.8741 42.6667 52.2667 45.0592 52.2667 48ZM13.8667 61.8667H50.1333V48C50.1333 46.2357 48.6976 44.8 46.9333 44.8H17.0667C15.3024 44.8 13.8667 46.2357 13.8667 48V61.8667ZM8.53333 61.8667H11.7333V48C11.7333 45.0592 14.1259 42.6667 17.0667 42.6667H26.0075L21.7568 34.1664C14.4107 34.5056 8.53333 40.5707 8.53333 48V61.8667Z" fill="black"/>
<path d="M16 52.2667H18.1333V59.7333H16V52.2667Z" fill="black"/>
<path d="M16 48H18.1333V50.1333H16V48Z" fill="black"/>
<path d="M6.4 9.6H8.53333V11.7333H6.4V9.6Z" fill="black"/>
<path d="M6.4 13.8667H8.53333V16H6.4V13.8667Z" fill="black"/>
<path d="M6.4 18.1333H8.53333V20.2667H6.4V18.1333Z" fill="black"/>
<path d="M55.4667 22.4H57.6V24.5333H55.4667V22.4Z" fill="black"/>
<path d="M55.4667 26.6667H57.6V28.8H55.4667V26.6667Z" fill="black"/>
<path d="M55.4667 30.9333H57.6V33.0667H55.4667V30.9333Z" fill="black"/>
</svg>
