<svg width="52" height="64" viewBox="0 0 52 64" fill="none" xmlns="http://www.w3.org/2000/svg">
<circle cx="14" cy="38" r="14" fill="#0AA054"/>
<path d="M36.0811 7.97453C29.1176 4.41727 20.7293 5.7774 15.2083 11.3589C8.79167 17.8457 8.14945 28.1889 13.7145 35.4182C13.9113 35.6737 14.2053 35.8075 14.5025 35.8075C14.7167 35.8075 14.9325 35.7381 15.1146 35.5947C15.5495 35.2526 15.6276 34.619 15.2893 34.1793C10.3411 27.7516 10.913 18.554 16.6194 12.7852C21.5294 7.82115 28.9887 6.6114 35.1815 9.77478C35.6731 10.0263 36.2733 9.82653 36.5218 9.32941C36.7702 8.83228 36.5731 8.22566 36.0811 7.97453Z" fill="black"/>
<path d="M44.0478 16.0299C43.7993 15.5328 43.1995 15.3333 42.7074 15.5843C42.2156 15.8354 42.0182 16.4419 42.2666 16.9393C45.3935 23.1988 44.1962 30.7388 39.2873 35.7013C33.5807 41.4701 24.4829 42.0481 18.1248 37.046C17.6898 36.704 17.0631 36.783 16.7247 37.2225C16.3863 37.6621 16.4646 38.2957 16.8994 38.6378C20.1568 41.2006 24.053 42.4611 27.9369 42.4611C32.5795 42.4611 37.2045 40.6597 40.6983 37.1276C46.2181 31.5476 47.5641 23.0691 44.0478 16.0299Z" fill="black"/>
<path d="M41.4701 12.1885C41.223 11.9058 40.9633 11.6265 40.6983 11.3588C40.4334 11.0909 40.1573 10.8284 39.8776 10.5785C39.4647 10.2095 38.8341 10.249 38.4695 10.6664C38.1044 11.0837 38.1432 11.721 38.556 12.0899C38.8052 12.3124 39.0512 12.5464 39.2874 12.785C39.5233 13.0238 39.7548 13.2724 39.975 13.5243C40.1721 13.7498 40.4468 13.8649 40.723 13.8649C40.9578 13.8649 41.1934 13.7815 41.3832 13.612C41.7962 13.2433 41.835 12.6059 41.4701 12.1885Z" fill="black"/>
<path d="M51.5011 26.0513C52.1663 24.9479 52.1663 23.5774 51.5009 22.4743L50.1884 20.2984C50.0155 20.0117 49.9486 19.6712 50.0003 19.3397L50.3915 16.8268C50.591 15.5462 50.0705 14.277 49.0336 13.5144L46.9995 12.0187C46.7306 11.8208 46.5394 11.5322 46.4612 11.2054L45.8688 8.73053C45.5681 7.4734 44.6087 6.50365 43.3653 6.1994L40.9171 5.6004C40.5939 5.52128 40.3081 5.32803 40.1126 5.05615L38.6328 2.99927C37.8786 1.95102 36.6231 1.42464 35.3567 1.62639L32.8701 2.02189C32.5422 2.07402 32.2053 2.00652 31.9219 1.83177L29.7692 0.504517C28.6779 -0.168235 27.3222 -0.16811 26.2309 0.504517L24.0785 1.83139C23.7951 2.00627 23.4584 2.07352 23.1301 2.02152L20.6443 1.62602C19.3779 1.42452 18.1223 1.95064 17.3681 2.9989L15.8885 5.05527C15.6928 5.32715 15.4071 5.5204 15.0838 5.59953L12.6357 6.1984C11.3925 6.5024 10.433 7.47228 10.132 8.72928L9.53948 11.2043C9.46121 11.531 9.27018 11.8199 9.00113 12.0175L6.96652 13.5135C5.92962 14.2759 5.40931 15.5449 5.60851 16.8255L5.99972 19.3394C6.05128 19.671 5.98452 20.0116 5.81166 20.2981L4.4989 22.4744C3.83368 23.5777 3.83368 24.9482 4.49902 26.0513L5.81153 28.2273C5.98439 28.5141 6.05128 28.8546 5.9996 29.1861L5.60838 31.6991C5.40894 32.9796 5.92937 34.2488 6.96627 35.0113L9.00038 36.5071C9.26932 36.7047 9.46047 36.9936 9.53874 37.3203L10.1311 39.7952C10.4318 41.0523 11.3912 42.0221 12.6346 42.3263L13.6569 42.5765L6.73839 58.1782C6.59137 58.5099 6.63205 58.8956 6.8451 59.1884C7.05802 59.4811 7.41004 59.6355 7.76713 59.5922L13.334 58.9194L16.5409 63.5683C16.7286 63.8401 17.0348 63.9999 17.3589 63.9999C17.3899 63.9999 17.4213 63.9984 17.4525 63.9955C17.8103 63.9615 18.1225 63.7354 18.2696 63.404L25.3354 47.4691L26.2307 48.021C26.7763 48.3574 27.388 48.5255 27.9998 48.5255C28.6116 48.5255 29.2233 48.3572 29.769 48.021L30.6966 47.4492L37.7713 63.404C37.9183 63.7356 38.2304 63.9615 38.5883 63.9955C38.6196 63.9985 38.6509 64 38.6819 64C39.006 64 39.3124 63.8403 39.5 63.5684L42.7069 58.9195L48.2737 59.5924C48.6305 59.6352 48.9828 59.4812 49.1957 59.1885C49.4086 58.8957 49.4496 58.51 49.3024 58.1784L42.3803 42.568L43.3642 42.3273C44.6074 42.0233 45.5669 41.0535 45.8679 39.7965L46.4604 37.3215C46.5387 36.9947 46.7298 36.7058 46.9988 36.5082L49.0334 35.0122C50.0703 34.2498 50.5906 32.9808 50.3914 31.7002L50.0002 29.1863C49.9486 28.8547 50.0154 28.5142 50.1882 28.2277L51.5011 26.0513ZM17.1696 60.9535L14.6282 57.2692C14.4175 56.9637 14.0572 56.8002 13.6914 56.8447L9.27983 57.378L15.5832 43.1626C15.6985 43.2482 15.8018 43.3508 15.887 43.4695L17.3668 45.5263C17.5074 45.7217 17.6654 45.8988 17.8377 46.0566L14.5199 53.5387C14.2946 54.0471 14.5194 54.6437 15.0221 54.8716C15.1547 54.9317 15.2933 54.9601 15.4295 54.9601C15.8106 54.9601 16.1746 54.7381 16.3404 54.3639L19.6465 46.9083C19.9718 46.9535 20.3068 46.9527 20.643 46.8992L23.1295 46.5037C23.2784 46.4801 23.4288 46.4822 23.5754 46.5067L17.1696 60.9535ZM46.7612 57.3777L42.3495 56.8447C41.9834 56.8004 41.6235 56.9637 41.4128 57.2692L38.8713 60.9535L32.4629 46.5011C32.5973 46.4826 32.7344 46.4826 32.87 46.5041L35.3557 46.8996C35.7055 46.9552 36.0541 46.9535 36.3917 46.9026L39.7003 54.3641C39.8663 54.7385 40.2301 54.9604 40.6112 54.9604C40.7476 54.9604 40.8862 54.932 41.0186 54.8719C41.5213 54.6441 41.7463 54.0472 41.5208 53.539L38.1904 46.0283C38.351 45.8776 38.4995 45.7107 38.632 45.5267L40.1115 43.4703C40.2047 43.3407 40.319 43.2296 40.4473 43.1397L46.7612 57.3777ZM49.7974 25.0011L48.4846 27.1774C48.0661 27.8717 47.9041 28.6964 48.0291 29.4997L48.4203 32.0134C48.5026 32.5421 48.2877 33.066 47.8597 33.3807L45.825 34.8768C45.1737 35.3558 44.7106 36.0555 44.5211 36.8468L43.9286 39.3218C43.8044 39.8407 43.4084 40.2411 42.8951 40.3667L40.4468 40.9656C39.6639 41.1571 38.9717 41.6253 38.4979 42.2838L37.0184 44.3402C36.707 44.7731 36.1889 44.9901 35.6658 44.9068L33.18 44.5113C32.3853 44.385 31.5694 44.5485 30.8825 44.9718L28.7302 46.2987C28.2798 46.5762 27.7199 46.5762 27.2697 46.2987L25.1169 44.9717C24.5815 44.6416 23.9677 44.4696 23.3466 44.4696C23.171 44.4696 22.9946 44.4833 22.8196 44.5112L20.333 44.9067C19.81 44.99 19.2919 44.7726 18.9805 44.34L17.5006 42.2831C17.0268 41.6247 16.3347 41.1565 15.5519 40.965L13.1037 40.366C12.5905 40.2403 12.1944 39.8401 12.0702 39.3211L11.4778 36.8462C11.2883 36.0547 10.8253 35.3548 10.1738 34.8758L8.1398 33.38C7.71174 33.0652 7.49696 32.5412 7.57931 32.0126L7.97053 29.4996C8.09554 28.6962 7.93381 27.8714 7.51501 27.1771L6.2025 25.0009C5.92789 24.5456 5.92789 23.9797 6.2025 23.5244L7.51526 21.3481C7.93393 20.6538 8.09578 19.829 7.97078 19.0258L7.57956 16.512C7.49733 15.9834 7.71223 15.4595 8.14017 15.1448L10.1749 13.6487C10.8262 13.1697 11.2893 12.47 11.4788 11.6787L12.0713 9.20366C12.1955 8.68478 12.5915 8.2844 13.1048 8.15878L15.553 7.5599C16.336 7.3684 17.0282 6.90015 17.5018 6.24165L18.9814 4.18527C19.2927 3.75252 19.8108 3.53515 20.334 3.61852L22.8198 4.01402C23.6146 4.14065 24.4305 3.9769 25.1172 3.55352L27.2696 2.22664C27.72 1.94914 28.2799 1.94914 28.7301 2.22664L30.8829 3.55365C31.5696 3.97715 32.3857 4.14077 33.1801 4.01427L35.6668 3.61877C36.1896 3.5359 36.7079 3.7529 37.0192 4.18552L38.4992 6.2424C38.973 6.90078 39.665 7.36903 40.4478 7.56053L42.896 8.15953C43.4093 8.28516 43.8053 8.68541 43.9296 9.20441L44.522 11.6793C44.7114 12.4708 45.1745 13.1707 45.826 13.6497L47.8601 15.1454C48.2882 15.4602 48.5029 15.9842 48.4206 16.5128L48.0294 19.0258C47.9044 19.8292 48.0661 20.6539 48.4849 21.3483L49.7974 23.5244C50.0721 23.9798 50.0721 24.5457 49.7974 25.0011Z" fill="black"/>
<path d="M39.6743 21.1247C39.4545 20.4404 38.8789 19.9627 38.1721 19.8779L32.1689 19.1583L29.6369 13.6089C29.3388 12.9557 28.7115 12.5498 27.9998 12.5498C27.2882 12.5498 26.6609 12.9557 26.3627 13.6089L23.8307 19.1584L17.8275 19.8781C17.1208 19.9628 16.5451 20.4406 16.3253 21.1248C16.1055 21.8087 16.2934 22.5373 16.8157 23.0257L21.254 27.1751L20.0759 33.1693C19.9373 33.8751 20.2088 34.5761 20.7847 34.9988C21.1023 35.2321 21.4709 35.3502 21.8418 35.3502C22.1434 35.3502 22.4464 35.2722 22.7247 35.1147L27.9997 32.1298L33.2747 35.1147C33.8958 35.4662 34.639 35.4218 35.2149 34.999C35.7907 34.5761 36.0622 33.875 35.9235 33.1693L34.7454 27.1752L39.1837 23.0258C39.7062 22.5374 39.8941 21.8089 39.6743 21.1247ZM32.9808 26.0776C32.7261 26.3157 32.6121 26.6706 32.6796 27.0146L33.8852 33.1485L28.487 30.0938C28.3356 30.0082 28.1677 29.9653 27.9997 29.9653C27.8317 29.9653 27.6639 30.0081 27.5124 30.0938L22.1142 33.1485L23.3198 27.0146C23.3875 26.6704 23.2734 26.3157 23.0186 26.0776L18.4768 21.8313L24.6203 21.0949C24.9648 21.0537 25.2634 20.8343 25.4088 20.5159L27.9998 14.837L30.5908 20.5159C30.7362 20.8343 31.0347 21.0537 31.3793 21.0949L37.5226 21.8313L32.9808 26.0776Z" fill="black"/>
</svg>
