<svg width="50" height="29" viewBox="0 0 50 29" fill="none" xmlns="http://www.w3.org/2000/svg">
<path fill-rule="evenodd" clip-rule="evenodd" d="M0 18.3047C0 14.837 1.66982 11.7593 4.24924 9.83184C9.8478 2.17787 18.1334 0.0502167 22 0C15.0315 1.32986 12.9301 5.07778 12.6543 7.93976C17.4941 8.90748 21.1406 13.1802 21.1406 18.3047C21.1406 24.1425 16.4081 28.875 10.5703 28.875C4.73249 28.875 0 24.1425 0 18.3047ZM28 18.3047C28 14.837 29.6698 11.7593 32.2492 9.83184C37.8478 2.17787 46.1334 0.0502167 50 0C43.0315 1.32986 40.9301 5.07778 40.6543 7.93976C45.4941 8.90748 49.1406 13.1802 49.1406 18.3047C49.1406 24.1425 44.4081 28.875 38.5703 28.875C32.7325 28.875 28 24.1425 28 18.3047Z" fill="#BB5817"/>
</svg>
