<svg fill="none" height="64" viewBox="0 0 101 64" width="101" xmlns="http://www.w3.org/2000/svg"><g fill="#000"><path d="m99.0281 29.5743c-1.0456-1.239-2.4719-2.0443-4.1071-2.3453l-.768-10.3644c.7576-.0073 1.4037-.5499 1.5357-1.2934l.2962-1.6701c.3175-1.7903-.1253-3.5574-1.2149-4.84827-1.0883-1.28945-2.6816-1.9998-4.4867-1.9998h-11.5611l.5628-3.17285c.1597-.90118-.0717-1.80098-.6347-2.46817-.5574-.660545-1.3956-1.039451-2.2996-1.039451h-56.9088c-1.6829 0-3.232 1.301761-3.5268 2.964061l-5.0349 28.39198c-.1509.8516.4209 1.6637 1.2774 1.8137.0923.0162.1843.024.2752.024.7498 0 1.4144-.5346 1.5489-1.2941l5.0351-28.39202c.0332-.18692.2752-.37637.4249-.37637l56.7117.00019-5.0054 28.2246c-.151.8516.4208 1.6637 1.2775 1.8137.8554.1498 1.6732-.4186 1.8241-1.2701l.363-2.0467h18.8316.0022.0021c1.3016.0002 2.4262.4836 3.167 1.3611.5097.6041.8071 1.3561.8787 2.1879h-5.231c-.7643 0-1.418.5455-1.5508 1.294l-.5923 3.3402c-.2387 1.3457.0984 2.6791.9246 3.6582.8149.9658 2.0518 1.5195 3.3933 1.5195h1.4827l-1.2218 6.8893h-4.1576c-.2737-1.3779-.8726-2.6453-1.7803-3.7205-1.6106-1.9088-3.9808-2.9598-6.6734-2.9598-4.3175 0-8.4829 2.8086-10.433 6.6805h-.6331l2.0436-11.5233c.1508-.8515-.4208-1.6636-1.2775-1.8136-.856-.1504-1.6732.4183-1.8241 1.2701l-2.14 12.067h-29.1516c-.2736-1.378-.8726-2.6451-1.7803-3.7205-1.6108-1.9088-3.9808-2.9598-6.6736-2.9598-4.3175 0-8.4829 2.8086-10.4329 6.6805l-9.0318-.0002.6294-3.5489h7.0774c.8696 0 1.5748-.7009 1.5748-1.5658 0-.8646-.705-1.5658-1.5748-1.5658h-16.79713c-.869627 0-1.5748352.701-1.5748352 1.5658 0 .8647.7050122 1.5658 1.5748352 1.5658h6.5219l-.56279 3.1729c-.1597.9012.0717 1.801.63469 2.4682.55749.6605 1.39568 1.0394 2.29973 1.0394h8.2059c-.4268 2.6561.2147 5.1582 1.8206 7.0608 1.6108 1.9088 3.9808 2.9597 6.6735 2.9597 5.3596 0 10.4872-4.3263 11.4303-9.6445.0222-.126.0397-.2512.0574-.3762h31.8878c-.4271 2.6559.2145 5.158 1.8206 7.0608 1.6107 1.9088 3.9808 2.9597 6.6735 2.9597 5.3596 0 10.4872-4.3263 11.4303-9.6445.0222-.126.0397-.2512.0574-.3762h5.4069c.7643 0 1.4181-.5455 1.5508-1.2939l2.9615-16.7012c.402-2.267-.132-4.4113-1.5049-6.0379zm-23.8598-2.4797 1.8141-10.2295h14.013l.7581 10.2295zm17.7149-13.7371-.0668.3762h-15.2789l.6294-3.549h12.1164c.8579 0 1.5945.3129 2.0738.881.497.5887.684 1.4024.5261 2.2918zm-57.2979 40.0828c-.6899 3.8912-4.4263 7.0567-8.3288 7.0567-1.7455 0-3.2588-.6539-4.2609-1.841-1.0309-1.2217-1.4237-2.8807-1.1061-4.6717.6901-3.8912 4.4263-7.0567 8.3287-7.0567 1.7456 0 3.2589.6539 4.2609 1.8413 1.0309 1.2212 1.4238 2.8804 1.1062 4.6714zm51.8694 0c-.6901 3.8912-4.4264 7.0567-8.3288 7.0567-1.7455 0-3.2589-.6539-4.2609-1.8412-1.0309-1.2217-1.4238-2.8807-1.1061-4.6717.6899-3.8912 4.4263-7.0567 8.3287-7.0567 1.7453 0 3.2589.654 4.2609 1.8413 1.0309 1.2214 1.4238 2.8806 1.1062 4.6716zm9.0213-12.9845h-2.038v-.0002c-.4202 0-.7592-.1387-.9806-.4008-.2297-.2723-.3135-.6635-.2358-1.1016l.3631-2.0463h3.5207z"/><path d="m31.3334 51.5155c-.5575-.6605-1.3957-1.0394-2.2999-1.0394-1.6828 0-3.2319 1.3017-3.5268 2.964-.1597.9012.0717 1.801.6347 2.4682.5575.6606 1.3957 1.0395 2.2997 1.0395 1.6828 0 3.2319-1.302 3.5268-2.9639.1599-.9014-.0713-1.801-.6345-2.4684z"/><path d="m83.2026 51.5155c-.5576-.6605-1.3958-1.0394-2.2997-1.0394-1.6828 0-3.2319 1.3017-3.5266 2.9638-.1597.9014.0713 1.801.6345 2.4684.5575.6606 1.3957 1.0395 2.2997 1.0395 1.6829 0 3.232-1.302 3.5268-2.9639.1599-.9014-.0715-1.801-.6347-2.4684z"/><path d="m63.6107 43.7954h-19.9546c-.8697 0-1.5749.701-1.5749 1.5658 0 .8647.705 1.5658 1.5749 1.5658h19.9546c.8696 0 1.5749-.7009 1.5749-1.5658-.0002-.8648-.7053-1.5658-1.5749-1.5658z"/><path d="m35.2574 37.1147h-29.0503c-.86963 0-1.57484.701-1.57484 1.5659 0 .8646.70482 1.5658 1.57484 1.5658h29.0503c.8696 0 1.5748-.701 1.5748-1.5658 0-.8649-.705-1.5659-1.5748-1.5659z"/><path d="m65.3301 30.8158-5.8302-5.0104c-.6581-.5652-1.6525-.4935-2.2213.1608-.5689.6543-.4964 1.6429.1616 2.2086l2.6299 2.2601h-39.9303c-.8696 0-1.5749.701-1.5749 1.5658 0 .8647.7051 1.5659 1.5749 1.5659h38.9316l-3.248 2.1394c-.7253.4774-.9235 1.449-.4432 2.1699.3029.4549.8038.7012 1.3142.7012.2985 0 .6007-.0844.8682-.2607l7.6074-5.0104c.411-.2703.6705-.7164.7019-1.2055.0314-.4892-.1689-.9646-.5418-1.2847z"/></g></svg>