<svg width="156" height="102" viewBox="0 0 156 102" fill="none" xmlns="http://www.w3.org/2000/svg">
<rect x="0.358002" width="155.162" height="102" rx="51" fill="#130A0A"/>
<g clip-path="url(#clip0)">
<path d="M48.4427 73.7031C50.0157 72.4484 51.9828 71.8125 54.2891 71.8125C54.5961 71.8125 54.8905 71.6907 55.1076 71.4738C55.3246 71.257 55.4466 70.9629 55.4466 70.6562C55.4466 70.3496 55.3246 70.0555 55.1076 69.8386C54.8905 69.6218 54.5961 69.5 54.2891 69.5C51.4448 69.5 48.9919 70.306 46.9983 71.8959C46.765 72.0893 46.6169 72.3665 46.586 72.6678C46.5551 72.9691 46.6438 73.2706 46.833 73.5072C47.0223 73.7439 47.2969 73.897 47.5979 73.9335C47.8989 73.97 48.2023 73.8871 48.4427 73.7025V73.7031Z" fill="white"/>
<path d="M95.4857 70.5595C92.8045 71.7547 91.3277 73.8427 91.3277 76.4375C91.3277 76.7441 91.4496 77.0382 91.6667 77.2551C91.8838 77.4719 92.1782 77.5937 92.4852 77.5937C92.7921 77.5937 93.0865 77.4719 93.3036 77.2551C93.5207 77.0382 93.6426 76.7441 93.6426 76.4375C93.6426 74.7394 94.5541 73.5074 96.4293 72.6711C96.5691 72.6099 96.6954 72.5217 96.801 72.4115C96.9065 72.3013 96.9891 72.1713 97.0442 72.0291C97.0992 71.8869 97.1256 71.7352 97.1217 71.5827C97.1178 71.4303 97.0837 71.2801 97.0215 71.1409C96.9593 71.0016 96.8701 70.876 96.7591 70.7714C96.6481 70.6667 96.5174 70.585 96.3747 70.531C96.232 70.4769 96.0799 70.4516 95.9274 70.4565C95.7748 70.4615 95.6247 70.4965 95.4857 70.5595Z" fill="white"/>
<path d="M106.798 68.5244C110.588 70.3436 112.153 73.4451 112.166 73.4723C112.303 73.7425 112.54 73.9482 112.828 74.0451C113.115 74.142 113.429 74.1223 113.702 73.9903C113.975 73.8584 114.185 73.6247 114.288 73.3394C114.39 73.0542 114.376 72.7403 114.249 72.4652C114.174 72.3092 112.348 68.6235 107.8 66.4401C107.662 66.3732 107.513 66.3341 107.361 66.325C107.209 66.3158 107.056 66.3369 106.912 66.3869C106.768 66.4369 106.635 66.5149 106.521 66.6164C106.407 66.7179 106.315 66.8409 106.249 66.9783C106.182 67.1157 106.144 67.2648 106.136 67.4171C106.128 67.5693 106.15 67.7216 106.201 67.8653C106.252 68.009 106.331 68.1412 106.433 68.2543C106.535 68.3674 106.659 68.4592 106.797 68.5244H106.798Z" fill="white"/>
<path d="M99.4208 66.035C99.3977 65.8849 99.3453 65.7408 99.2665 65.611C99.1876 65.4811 99.084 65.3681 98.9614 65.2783C98.8389 65.1884 98.6998 65.1236 98.5522 65.0875C98.4046 65.0513 98.2512 65.0446 98.101 65.0676C92.4251 65.9383 86.6979 69.7916 86.6979 76.4375C86.6979 78.8907 85.7223 81.2435 83.9858 82.9782C82.2493 84.7129 79.8941 85.6875 77.4383 85.6875C74.9824 85.6875 72.6272 84.7129 70.8907 82.9782C69.1542 81.2435 68.1786 78.8907 68.1786 76.4375C68.1786 69.2245 61.2339 64.875 54.2891 64.875C44.4275 64.875 40.6768 72.1423 40.5219 72.4516C39.8403 73.8135 41.8973 74.8495 42.5909 73.4896C42.7217 73.2322 45.8995 67.1875 54.2891 67.1875C59.0953 67.1875 65.8637 70.0573 65.8637 76.4375C65.8637 79.5041 67.0832 82.445 69.2538 84.6134C71.4245 86.7818 74.3685 88 77.4383 88C80.508 88 83.452 86.7818 85.6227 84.6134C87.7933 82.445 89.0128 79.5041 89.0128 76.4375C89.0128 71.1621 93.7539 68.074 98.4524 67.3533C98.7558 67.3067 99.0283 67.1417 99.2099 66.8945C99.3915 66.6472 99.4674 66.3381 99.4208 66.035Z" fill="white"/>
<path d="M70.3115 33.8986C70.4368 34.0786 73.4222 38.3154 76.9492 39.3788C77.8706 39.6626 78.8462 39.7239 79.796 39.5577C79.6301 40.4962 79.6898 41.4606 79.9702 42.3715C81.0281 45.872 85.2635 48.8265 85.4434 48.9507C85.5864 49.0494 85.75 49.1147 85.9218 49.1416C86.0936 49.1686 86.2693 49.1565 86.4358 49.1063C86.6023 49.0561 86.7553 48.969 86.8835 48.8516C87.0117 48.7342 87.1117 48.5894 87.1762 48.4281C87.2572 48.2257 89.1484 43.4232 88.0905 39.9224C87.4612 37.8401 85.9962 36.7027 84.77 36.0939L88.2761 32.5915C90.5635 34.736 90.7281 35.383 91.5498 35.383C91.7784 35.3823 92.0017 35.3141 92.1916 35.1869C92.3815 35.0597 92.5296 34.8793 92.617 34.6683C92.7045 34.4573 92.7276 34.2252 92.6833 34.0011C92.6391 33.777 92.5294 33.5711 92.3683 33.4091L85.8213 26.8691C85.714 26.7606 85.5864 26.6744 85.4457 26.6154C85.305 26.5565 85.154 26.5259 85.0014 26.5254C84.8488 26.5249 84.6976 26.5546 84.5566 26.6127C84.4155 26.6708 84.2873 26.7562 84.1794 26.864C84.0715 26.9718 83.986 27.0998 83.9278 27.2407C83.8696 27.3816 83.8399 27.5327 83.8404 27.6851C83.8408 27.8375 83.8715 27.9884 83.9305 28.1289C83.9895 28.2695 84.0758 28.397 84.1843 28.5041L86.64 30.957L83.1731 34.4202C82.5384 33.2319 81.4014 31.8703 79.401 31.267C75.8747 30.2037 71.0405 32.0819 70.8358 32.1631C70.6735 32.2272 70.5278 32.3272 70.4097 32.4556C70.2915 32.5839 70.204 32.7373 70.1535 32.9042C70.1031 33.0711 70.0911 33.2473 70.1185 33.4195C70.1458 33.5917 70.2118 33.7555 70.3115 33.8986ZM82.7751 38.2432C82.9309 38.1276 83.0669 38.0189 83.1824 37.9208C86.5996 39.1575 86.5084 42.5432 85.517 46.0709C82.8686 43.7776 80.8867 41.1272 82.7751 38.2432ZM81.4383 36.1825C81.3409 36.2963 81.2327 36.4299 81.119 36.5826C78.2188 38.4635 75.5261 36.4958 73.206 33.8245C76.7559 32.8441 80.18 32.7578 81.4383 36.1825Z" fill="white"/>
<path d="M71.9075 58.7551C72.015 58.8625 72.1426 58.9477 72.283 59.0058C72.4234 59.0639 72.574 59.0938 72.726 59.0938C72.878 59.0938 73.0285 59.0639 73.1689 59.0058C73.3093 58.9477 73.4369 58.8625 73.5444 58.7551C74.0815 58.2178 74.7194 57.7915 75.4215 57.5007C76.1236 57.2099 76.8763 57.0602 77.6364 57.0602C78.3965 57.0602 79.1491 57.2099 79.8513 57.5007C80.5534 57.7915 81.1913 58.2178 81.7284 58.7551C81.9456 58.9717 82.24 59.0934 82.5469 59.0934C82.8538 59.0934 83.1482 58.9717 83.3654 58.7551L103.828 38.3155C104.695 37.4475 105.182 36.2714 105.182 35.0452C105.182 33.819 104.695 32.6429 103.828 31.7749L87.4585 15.4226C87.0287 14.9929 86.5183 14.6521 85.9566 14.4195C85.3949 14.187 84.7928 14.0673 84.1848 14.0673C83.5767 14.0673 82.9746 14.187 82.4129 14.4195C81.8512 14.6521 81.3408 14.9929 80.911 15.4226L77.0278 19.3018C76.8107 19.5187 76.6887 19.8128 76.6886 20.1195C76.6886 20.4262 76.8105 20.7204 77.0276 20.9373C77.2446 21.1542 77.5391 21.2761 77.8461 21.2761C78.1531 21.2761 78.4476 21.1543 78.6647 20.9375C82.3252 17.5345 82.5956 16.3813 84.1848 16.3813C85.912 16.3813 85.0073 16.581 102.191 33.4105C102.624 33.8445 102.868 34.4326 102.868 35.0456C102.868 35.6587 102.624 36.2467 102.191 36.6807L82.4895 56.3601C81.0885 55.3135 79.386 54.7479 77.6366 54.7479C75.8872 54.7479 74.1847 55.3135 72.7837 56.3601L57.993 41.5852L61.2669 38.3148C74.8141 51.666 74.2686 51.7354 75.1809 51.7354C75.4095 51.7347 75.6329 51.6665 75.8228 51.5394C76.0127 51.4123 76.1607 51.2318 76.2482 51.0208C76.3357 50.8098 76.3588 50.5777 76.3145 50.3536C76.2702 50.1296 76.1606 49.9236 75.9994 49.7616L62.9036 36.6795L70.4935 29.0987C70.7106 28.8819 70.8325 28.5878 70.8325 28.2811C70.8325 27.9745 70.7106 27.6804 70.4935 27.4635C70.2764 27.2467 69.982 27.1248 69.675 27.1248C69.3681 27.1248 69.0737 27.2467 68.8566 27.4635L55.5386 40.7676C55.4311 40.875 55.3459 41.0024 55.2877 41.1427C55.2295 41.283 55.1996 41.4334 55.1996 41.5852C55.1996 41.7371 55.2295 41.8874 55.2877 42.0277C55.3459 42.168 55.4311 42.2955 55.5386 42.4028L71.9075 58.7551Z" fill="white"/>
<path d="M76.2808 62.5625C76.92 62.5625 77.4382 62.0448 77.4382 61.4062C77.4382 60.7677 76.92 60.25 76.2808 60.25C75.6415 60.25 75.1233 60.7677 75.1233 61.4062C75.1233 62.0448 75.6415 62.5625 76.2808 62.5625Z" fill="white"/>
<path d="M73.9659 25.5625C74.6051 25.5625 75.1233 25.0448 75.1233 24.4062C75.1233 23.7677 74.6051 23.25 73.9659 23.25C73.3266 23.25 72.8084 23.7677 72.8084 24.4062C72.8084 25.0448 73.3266 25.5625 73.9659 25.5625Z" fill="white"/>
<path d="M80.9106 67.1875C81.5498 67.1875 82.0681 66.6698 82.0681 66.0312C82.0681 65.3927 81.5498 64.875 80.9106 64.875C80.2714 64.875 79.7531 65.3927 79.7531 66.0312C79.7531 66.6698 80.2714 67.1875 80.9106 67.1875Z" fill="white"/>
<path d="M102.902 67.1875C103.541 67.1875 104.06 66.6698 104.06 66.0312C104.06 65.3927 103.541 64.875 102.902 64.875C102.263 64.875 101.745 65.3927 101.745 66.0312C101.745 66.6698 102.263 67.1875 102.902 67.1875Z" fill="white"/>
<path d="M76.2808 71.8125C76.92 71.8125 77.4382 71.2948 77.4382 70.6562C77.4382 70.0177 76.92 69.5 76.2808 69.5C75.6415 69.5 75.1233 70.0177 75.1233 70.6562C75.1233 71.2948 75.6415 71.8125 76.2808 71.8125Z" fill="white"/>
<path d="M71.651 76.4375C72.2902 76.4375 72.8084 75.9198 72.8084 75.2812C72.8084 74.6427 72.2902 74.125 71.651 74.125C71.0117 74.125 70.4935 74.6427 70.4935 75.2812C70.4935 75.9198 71.0117 76.4375 71.651 76.4375Z" fill="white"/>
<path d="M78.5957 76.4375C79.2349 76.4375 79.7531 75.9198 79.7531 75.2812C79.7531 74.6427 79.2349 74.125 78.5957 74.125C77.9564 74.125 77.4382 74.6427 77.4382 75.2812C77.4382 75.9198 77.9564 76.4375 78.5957 76.4375Z" fill="white"/>
<path d="M80.9106 81.0625C81.5498 81.0625 82.0681 80.5448 82.0681 79.9062C82.0681 79.2677 81.5498 78.75 80.9106 78.75C80.2714 78.75 79.7531 79.2677 79.7531 79.9062C79.7531 80.5448 80.2714 81.0625 80.9106 81.0625Z" fill="white"/>
<path d="M76.2808 83.375C76.92 83.375 77.4382 82.8573 77.4382 82.2188C77.4382 81.5802 76.92 81.0625 76.2808 81.0625C75.6415 81.0625 75.1233 81.5802 75.1233 82.2188C75.1233 82.8573 75.6415 83.375 76.2808 83.375Z" fill="white"/>
<path d="M54.2891 74.125C53.1618 74.1213 52.0581 74.448 51.1148 75.0648C50.1715 75.6816 49.4301 76.5613 48.9825 77.5949C47.9258 77.6217 46.9213 78.0596 46.1829 78.8152C45.4446 79.5709 45.0307 80.5847 45.0295 81.6406C45.0295 85.548 50.238 86.8768 50.238 84.5312C50.238 84.2246 50.1161 83.9305 49.899 83.7136C49.682 83.4968 49.3875 83.375 49.0806 83.375C48.6201 83.375 48.1785 83.1923 47.8529 82.867C47.5273 82.5417 47.3444 82.1006 47.3444 81.6406C47.3444 81.1806 47.5273 80.7395 47.8529 80.4142C48.1785 80.089 48.6201 79.9062 49.0806 79.9062C49.4857 79.9062 49.8564 80.1495 50.3862 79.8273C50.5172 79.7476 50.6311 79.6427 50.7212 79.5186C50.8112 79.3946 50.8757 79.2539 50.9108 79.1047C51.1075 78.2776 51.6013 77.5516 52.2986 77.0643C52.9958 76.577 53.8479 76.3624 54.6931 76.4613C55.5382 76.5602 56.3176 76.9656 56.8833 77.6007C57.4489 78.2358 57.7614 79.0562 57.7615 79.9062C57.7615 80.2129 57.8834 80.507 58.1005 80.7238C58.3176 80.9407 58.612 81.0625 58.9189 81.0625C61.5574 81.0625 59.6703 74.125 54.2891 74.125Z" fill="white"/>
<path d="M110.952 78.9117C110.491 76.1597 108.137 74.125 105.217 74.125C99.7242 74.125 97.988 81.0625 100.587 81.0625C100.894 81.0625 101.189 80.9407 101.406 80.7238C101.623 80.507 101.745 80.2129 101.745 79.9062C101.745 75.2756 108.72 75.3088 108.72 79.9062C108.72 80.2129 108.842 80.507 109.059 80.7238C109.276 80.9407 109.57 81.0625 109.877 81.0625C110.902 81.0625 112.162 82.5114 112.162 83.6904C112.162 84.7165 111.037 85.6875 109.847 85.6875C109.54 85.6875 109.246 85.8093 109.029 86.0262C108.811 86.243 108.69 86.5371 108.69 86.8437C108.69 89.3441 114.477 87.5918 114.477 83.6904C114.477 81.7781 112.978 79.5263 110.952 78.9117Z" fill="white"/>
</g>
<defs>
<clipPath id="clip0">
<rect width="74.0771" height="74" fill="white" transform="translate(40.3997 14)"/>
</clipPath>
</defs>
</svg>
