<svg width="156" height="102" viewBox="0 0 156 102" fill="none" xmlns="http://www.w3.org/2000/svg">
<rect x="0.255859" width="155.162" height="102" rx="51" fill="#BB5817"/>
<path d="M76.4032 25.1739L72.1043 20.8288C71.5973 20.223 70.6953 20.1429 70.0894 20.6497C69.4834 21.1565 69.4032 22.0583 69.9102 22.6641C69.9609 22.7246 70.0165 22.781 70.0766 22.8324L74.3756 27.1775C74.9754 27.6913 75.8784 27.6216 76.3924 27.0219C76.8471 26.4913 76.8518 25.7097 76.4032 25.1739Z" fill="white"/>
<path d="M112.853 21.0538C112.346 20.448 111.444 20.3678 110.838 20.8746C110.777 20.9253 110.721 20.9809 110.669 21.041L106.323 25.3389C105.717 25.8457 105.637 26.7475 106.144 27.3533C106.651 27.9591 107.553 28.0392 108.159 27.5324C108.219 27.4817 108.276 27.4261 108.327 27.366L112.673 23.0681C113.279 22.5614 113.36 21.6595 112.853 21.0538Z" fill="white"/>
<path d="M86.9509 20.1586C86.942 20.117 86.9314 20.0759 86.9188 20.0353L85.347 14.1266C85.1835 13.3584 84.4281 12.8681 83.6596 13.0314C82.8912 13.1946 82.4008 13.9501 82.5641 14.7183C82.5729 14.7599 82.5835 14.801 82.5961 14.8417L84.1679 20.7503C84.3314 21.5185 85.0869 22.0088 85.8553 21.8456C86.6237 21.6823 87.1143 20.9269 86.9509 20.1586Z" fill="white"/>
<path d="M106.496 50.5841C106.229 50.3169 105.951 50.0551 105.663 49.7983L105.899 49.3741C106.191 48.8364 106.454 48.2829 106.685 47.7162C110.033 39.3571 105.968 29.8674 97.6072 26.5204C97.5914 26.5141 97.5759 26.5078 97.5602 26.5017C90.0012 23.4895 81.3777 26.5065 77.3463 33.5732C67.4929 30.822 57.2741 36.5774 54.522 46.4286C54.0641 48.0678 53.8344 49.7622 53.8395 51.4641C53.8395 51.6998 53.8395 51.9459 53.8395 52.2026C46.9986 52.6876 41.8461 58.6249 42.3313 65.464C42.7896 71.928 48.1439 76.9519 54.6254 77H95.5325C104.079 77.0147 111.019 70.1004 111.034 61.5561C111.041 57.4408 109.408 53.4924 106.496 50.5841ZM86.5652 29.1575C89.7525 27.8903 93.3041 27.8903 96.4913 29.1575C103.401 31.9136 106.773 39.7429 104.028 46.6555C103.829 47.1314 103.604 47.5958 103.352 48.0462V48.1719C99.4069 45.8788 94.6507 45.4419 90.3533 46.9776C89.5601 43.8139 87.9441 40.9162 85.6692 38.5783C87.2586 35.6283 90.7993 34.3269 93.9214 35.5454C94.6676 35.7907 95.4716 35.3847 95.717 34.6387C95.9422 33.9543 95.6198 33.2096 94.9667 32.9054C90.7276 31.2072 85.8808 32.7893 83.4608 36.6611C82.3882 35.855 81.2315 35.1672 80.0106 34.6104C81.5455 32.1297 83.8461 30.2156 86.5652 29.1575ZM98.518 73.7944C97.5453 74.0268 96.5483 74.1429 95.5482 74.1402H54.6804C49.398 74.1354 45.1197 69.8503 45.1244 64.5693C45.1268 62.0383 46.1325 59.6116 47.9215 57.8207L47.9058 57.8286C49.6971 56.0348 52.1293 55.0281 54.6647 55.0314H55.317C56.1008 55.0849 56.7796 54.4928 56.8328 53.7093C56.8413 53.5865 56.8336 53.4629 56.8103 53.3421C56.7788 53.0697 56.7527 52.7739 56.7317 52.4543C56.7317 52.1557 56.7317 51.8257 56.7317 51.4564C56.8482 42.8045 63.9582 35.885 72.6126 36.0015C80.2169 36.1038 86.6501 41.6496 87.8698 49.1542C87.9824 49.9315 88.7039 50.4705 89.4815 50.358C89.6316 50.3362 89.7774 50.2906 89.9132 50.2228C90.7834 49.7877 91.7012 49.4556 92.6482 49.2328C99.4325 47.6123 106.246 51.797 107.867 58.5796C109.488 65.3619 105.302 72.1739 98.518 73.7944Z" fill="white"/>
<path d="M120.317 34.5294C120.1 33.826 119.382 33.4045 118.662 33.5575L112.752 35.1289C111.993 35.3254 111.536 36.0983 111.73 36.8575C111.926 37.6181 112.702 38.076 113.463 37.8801C113.464 37.8797 113.466 37.8794 113.467 37.879L119.377 36.3075C120.128 36.0761 120.549 35.28 120.317 34.5294Z" fill="white"/>
<path d="M119.314 48.4312L113.42 46.8205C112.663 46.6034 111.873 47.0414 111.656 47.7987C111.439 48.5559 111.877 49.3456 112.634 49.5626L118.529 51.1734C119.286 51.3904 120.076 50.9524 120.293 50.1951C120.51 49.4379 120.072 48.6482 119.314 48.4312Z" fill="white"/>
<path d="M99.2303 13.172C98.4729 12.9549 97.683 13.393 97.4659 14.1502L95.8548 20.0431C95.63 20.7956 96.0579 21.588 96.8106 21.8128C96.8271 21.8177 96.8438 21.8224 96.8607 21.8267C97.6144 22.0485 98.4053 21.6175 98.6271 20.864C98.6306 20.8524 98.6338 20.8406 98.6369 20.8288L100.209 14.9359C100.426 14.1787 99.9877 13.3891 99.2303 13.172Z" fill="white"/>
</svg>
