<svg width="156" height="102" viewBox="0 0 156 102" fill="none" xmlns="http://www.w3.org/2000/svg">
<rect x="0.168335" width="155.162" height="102" rx="51" fill="#5C9286"/>
<path d="M123.989 17.1395C122.729 13.1867 121.023 10.3565 120.95 10.2375C120.671 9.77714 120.094 9.53766 119.573 9.65713C119.437 9.68793 116.215 10.4388 112.497 12.292C107.478 14.793 103.973 18.132 102.357 21.9462C101.013 25.1227 100.82 29.0059 101.774 33.2959C99.7422 31.0312 97.4568 29.05 94.9656 27.3821C94.2048 25.882 92.1934 22.1889 89.0488 18.329C88.0131 17.0583 86.0208 18.6529 87.0672 19.9363C89.1861 22.5377 90.781 25.0961 91.7784 26.8538L80.1477 24.5906L69.0973 9.54562C70.1703 9.56049 71.247 9.66403 72.3185 9.87378C75.7152 10.5375 79.0704 12.2644 82.2926 15.0054C83.555 16.0796 85.1946 14.1245 83.9487 13.0651C80.3892 10.0373 76.6414 8.12146 72.8089 7.37221C66.9587 6.22949 60.1355 7.72958 53.075 11.7121C47.8126 14.6804 44.2935 17.9408 44.1467 18.0778C43.6759 18.517 43.6009 19.3145 43.9951 19.8275C44.5111 20.8842 46.4667 24.6963 49.7219 28.8004C51.6407 31.2202 53.6644 33.2911 55.7578 34.993C55.163 35.4906 54.5842 36.011 54.024 36.5584C51.0322 39.4795 48.7414 42.9252 47.2375 46.6921C45.9081 50.0205 45.1931 53.6011 45.1532 57.2916C45.0872 63.3264 46.8391 69.1468 50.2203 74.1245C53.5234 78.9863 58.1411 82.7193 63.5737 84.9193C65.0941 85.5336 66.0554 83.1733 64.5339 82.5574C62.5656 81.7603 60.7164 80.7392 59.0109 79.5248C59.229 78.3173 59.7349 73.9715 56.843 69.4728C56.4382 68.8436 57.6484 66.3723 58.3709 64.8961C59.1167 63.3748 59.8865 61.8019 60.2461 60.3209C60.6281 58.7476 60.1982 57.427 59.0039 56.5004C58.1272 55.8201 56.9797 55.4681 55.9684 55.1574C55.3114 54.9557 54.5667 54.7273 54.3007 54.5059C53.7527 54.0476 52.8579 52.3543 52.1387 50.9944C51.3407 49.4858 50.581 48.0499 49.8054 47.1658C51.5508 43.0282 54.3544 39.3669 57.8655 36.5659C61.0728 38.7467 64.7334 40.2516 68.6243 40.5564C64.1121 44.0461 62.6523 48.5029 64.7387 52.7838C67.1752 57.7827 72.1902 56.9841 76.6148 56.2805C77.3803 56.1584 78.1724 56.0325 78.931 55.938C79.2156 55.9024 79.3013 55.98 79.3587 56.0304C80.3275 56.8906 80.2987 60.999 80.278 63.9992C80.2498 68.149 80.2232 72.0689 81.7718 74.0814C82.5618 75.1073 83.6742 75.632 84.9781 75.632C85.7596 75.632 86.6086 75.444 87.4992 75.0627C91.3502 73.4166 95.3534 68.4623 94.7427 64.5424C94.2091 61.1153 93.8558 58.8511 94.6884 57.0261C95.4582 55.3369 97.3191 53.7731 100.984 51.7776C101.423 53.7503 101.644 55.8026 101.621 57.9081C101.543 65.0947 98.665 71.8209 93.518 76.8469C87.7657 82.4639 79.6811 85.2379 71.6838 84.358C70.0543 84.1817 69.7729 86.7125 71.4045 86.892C80.1583 87.8541 89.0089 84.8168 95.3034 78.6693C100.939 73.1665 104.089 65.8036 104.175 57.9351C104.289 47.5025 98.9256 38.2598 90.7618 32.9354C92.4487 31.7348 93.7053 30.6967 94.4022 30.094C97.3786 32.2254 100.019 34.8512 102.215 37.9104C107.488 45.2558 109.58 54.2101 108.105 63.1257C105.059 81.5299 87.5821 94.0313 69.1409 90.9903C60.2084 89.5178 52.3855 84.6623 47.1125 77.3169C41.8389 69.972 39.7477 61.0166 41.2229 52.1015C41.4878 50.4973 38.9699 50.0763 38.7039 51.6863C37.117 61.2736 39.3668 70.9034 45.0362 78.8021C50.7066 86.6997 59.1199 91.9216 68.7249 93.5056C70.7337 93.8364 72.7446 94 74.7416 94C82.2905 94 89.634 91.6604 95.8917 87.1845C103.806 81.5245 109.038 73.1283 110.624 63.541C111.786 56.5158 110.887 49.4677 108.093 43.0946C109.382 42.7149 111.577 41.9779 113.98 40.7799C118.998 38.2789 122.504 34.9399 124.119 31.1257C125.735 27.3104 125.69 22.474 123.989 17.1395ZM49.8799 52.1838C50.83 53.9818 51.7285 55.681 52.6622 56.4605C53.3234 57.0122 54.2437 57.2947 55.2178 57.5937C57.7134 58.3594 58.0033 58.7354 57.7639 59.7204C57.4702 60.9316 56.7616 62.3781 56.077 63.7762C54.7582 66.4695 53.5128 69.0119 54.6933 70.8492C56.3674 73.4533 56.6542 76.017 56.6254 77.6116C49.0202 70.7664 45.9235 59.9546 48.7563 50.1278C49.1319 50.7703 49.5266 51.5169 49.8799 52.1838ZM111.657 27.1378L108.028 18.3603C109.794 16.7121 111.842 15.4716 113.587 14.5981C115.074 13.8537 116.488 13.2972 117.622 12.9026L111.657 27.1378ZM119.976 13.8908C120.483 14.9783 121.071 16.3807 121.573 17.9658C122.123 19.7054 122.629 21.8612 122.729 24.1101L114.226 27.612L119.976 13.8908ZM104.709 22.9387C105.086 22.0498 105.573 21.2256 106.135 20.4647L110.266 30.4556L106.559 39.3032C106.038 38.2003 105.425 36.7517 104.905 35.1061C103.86 31.8112 102.979 27.0247 104.709 22.9387ZM112.89 38.4738C111.459 39.1906 110.094 39.7333 108.982 40.1247L112.829 30.9452L122.621 26.9122C122.479 28.0071 122.208 29.0925 121.767 30.1333C120.037 34.2193 115.985 36.9248 112.89 38.4738ZM66.8481 37.7484C66.3969 37.6603 65.9517 37.5525 65.5128 37.4298L79.6444 27.0901L91.2805 29.3537C87.0417 32.6874 76.7259 39.6802 66.8481 37.7484ZM53.9331 29.7743C50.9109 26.5229 48.6957 23.0464 47.4237 20.8205L62.2315 23.7022L53.9331 29.7743ZM56.5483 12.7699L62.7438 21.2049L47.8402 18.3051C49.7166 16.8262 52.8138 14.6061 56.5483 12.7699ZM66.4379 21.9239L58.9268 11.6973C61.1755 10.7749 63.5891 10.049 66.0634 9.72616L76.4541 23.8722L66.4379 21.9239ZM65.6431 24.366L76.2333 26.4263L62.6417 36.3704C60.0786 35.189 57.7719 33.4903 55.7535 31.602L65.6431 24.366ZM100.29 49.2543C95.6869 51.7022 93.4329 53.625 92.3636 55.9704C91.2151 58.489 91.6359 61.1923 92.2184 64.9338C92.5626 67.1401 89.9356 71.2485 86.4937 72.7199C85.2201 73.2642 84.3131 73.2 83.7965 72.5282C82.782 71.2103 82.8097 67.2214 82.8315 64.0168C82.8618 59.5828 82.8884 55.7538 81.0558 54.1262C80.3966 53.5411 79.5534 53.2936 78.6166 53.4083C77.8138 53.5081 76.9994 53.6377 76.2126 53.763C71.5189 54.5096 68.5653 54.8086 67.0353 51.6687C64.5563 46.5833 69.5745 42.8163 71.8471 41.4331C72.3099 41.1516 72.7392 40.8197 73.1382 40.4502C78.631 39.7949 83.821 37.4426 88.4461 34.496C93.9915 37.8031 98.2484 43.0367 100.29 49.2543Z" fill="white"/>
</svg>
