<svg width="56" height="80" viewBox="0 0 56 80" fill="none" xmlns="http://www.w3.org/2000/svg">
<path d="M43.1725 29.3986V14.0966C43.1725 6.32414 36.3656 0 28.0001 0C19.6345 0 12.8276 6.32414 12.8276 14.0966C12.8276 14.8593 13.4442 15.4759 14.207 15.4759C14.9697 15.4759 15.5863 14.8593 15.5863 14.0966C15.5863 7.84552 21.1545 2.75862 28.0001 2.75862C34.8456 2.75862 40.4138 7.84552 40.4138 14.0966V27.8041C40.1545 27.6731 39.8897 27.5572 39.6276 27.4345C39.0856 27.1807 38.5352 26.9434 37.9752 26.7241C37.6152 26.5834 37.2538 26.451 36.8897 26.3255C36.5311 26.2028 36.1752 26.08 35.8111 25.9724C35.2083 25.7931 34.5987 25.64 33.9849 25.5021C33.7187 25.4428 33.4511 25.3862 33.1821 25.3338C32.4607 25.1945 31.7352 25.0814 31.0042 25C30.8387 24.9821 30.6732 24.971 30.5076 24.9559C29.6732 24.8772 28.8387 24.8276 28.0001 24.8276C12.789 24.8276 0.413849 37.2028 0.413849 52.4138C0.413849 67.6248 12.789 80 28.0001 80C43.2111 80 55.5863 67.6248 55.5863 52.4138C55.5863 42.8055 50.6428 34.3393 43.1725 29.3986ZM28.0001 77.2414C14.3104 77.2414 3.17247 66.1034 3.17247 52.4138C3.17247 38.7241 14.3104 27.5862 28.0001 27.5862C28.7449 27.5862 29.4787 27.6331 30.2083 27.6979C30.4442 27.72 30.6787 27.7448 30.9145 27.7724C31.4345 27.8331 31.9476 27.9159 32.4566 28.0083C32.8097 28.0731 33.1614 28.1434 33.5118 28.2234C33.9918 28.3324 34.4676 28.4538 34.9366 28.5903C35.3187 28.7021 35.6966 28.829 36.0732 28.96C36.3201 29.0455 36.5628 29.1366 36.8056 29.229C38.1725 29.7531 39.4994 30.3972 40.7683 31.1614C47.9794 35.5103 52.8276 43.3972 52.8276 52.4138C52.8276 66.1034 41.6897 77.2414 28.0001 77.2414Z" fill="#666666"/>
<path d="M44.5518 51.0346H40.3325C40.0663 48.6443 39.1187 46.4608 37.6897 44.6746L40.6787 41.6857C41.218 41.1464 41.218 40.2746 40.6787 39.7353C40.1394 39.196 39.2676 39.196 38.7283 39.7353L35.7394 42.7243C33.9531 41.2953 31.7697 40.3477 29.3794 40.0815V35.8622C29.3794 35.0995 28.7628 34.4829 28 34.4829C27.2373 34.4829 26.6207 35.0995 26.6207 35.8622V40.0815C24.2304 40.3477 22.0469 41.2953 20.2607 42.7243L17.2718 39.7353C16.7325 39.196 15.8607 39.196 15.3214 39.7353C14.7821 40.2746 14.7821 41.1464 15.3214 41.6857L18.3104 44.6746C16.8814 46.4608 15.9338 48.6443 15.6676 51.0346H11.4483C10.6856 51.0346 10.069 51.6512 10.069 52.4139C10.069 53.1767 10.6856 53.7933 11.4483 53.7933H15.6676C15.9338 56.1836 16.8814 58.3671 18.3104 60.1533L15.3214 63.1422C14.7821 63.6815 14.7821 64.5533 15.3214 65.0926C15.5904 65.3615 15.9435 65.4967 16.2966 65.4967C16.6497 65.4967 17.0028 65.3615 17.2718 65.0926L20.2607 62.1036C22.0469 63.5326 24.2304 64.4802 26.6207 64.7464V68.9657C26.6207 69.7284 27.2373 70.345 28 70.345C28.7628 70.345 29.3794 69.7284 29.3794 68.9657V64.7464C31.7697 64.4802 33.9531 63.5326 35.7394 62.1036L38.7283 65.0926C38.9973 65.3615 39.3504 65.4967 39.7035 65.4967C40.0566 65.4967 40.4097 65.3615 40.6787 65.0926C41.218 64.5533 41.218 63.6815 40.6787 63.1422L37.6897 60.1533C39.1187 58.3671 40.0663 56.1836 40.3325 53.7933H44.5518C45.3145 53.7933 45.9311 53.1767 45.9311 52.4139C45.9311 51.6512 45.3145 51.0346 44.5518 51.0346ZM28 62.0691C22.6773 62.0691 18.3449 57.7367 18.3449 52.4139C18.3449 47.0912 22.6773 42.7588 28 42.7588C33.3228 42.7588 37.6552 47.0912 37.6552 52.4139C37.6552 57.7367 33.3228 62.0691 28 62.0691Z" fill="#666666"/>
</svg>
