<svg width="80" height="80" viewBox="0 0 80 80" fill="none" xmlns="http://www.w3.org/2000/svg">
<path d="M78.7146 1.28538C77.1173 -0.312521 74.3982 -0.424215 71.0571 0.970439C68.5358 2.0233 65.8069 3.85801 63.2556 6.20115C63.1183 6.06382 62.9834 5.92466 62.8443 5.78978C62.5366 5.49009 62.1289 5.32225 61.698 5.32713L38.4607 5.81724C38.0567 5.82579 37.6709 5.99058 37.3847 6.27623L29.3451 14.3158C28.7329 14.9286 28.7329 15.9222 29.3451 16.5344C29.9579 17.1472 30.9509 17.1472 31.5637 16.5344L39.1577 8.94102L60.9827 8.48021C59.0698 10.5725 57.5018 12.7807 56.4246 14.8956C54.1895 14.8907 51.9525 15.7385 50.2509 17.4402C48.6072 19.0838 47.7014 21.2701 47.7014 23.595C47.7014 25.9198 48.6066 28.1055 50.2509 29.7491C51.8945 31.3934 54.0808 32.2986 56.4057 32.2986C58.7305 32.2986 60.9162 31.3934 62.5604 29.7491C64.2041 28.1055 65.1093 25.9198 65.1093 23.595C65.1093 23.2074 65.0818 22.8241 65.0324 22.4469C65.0318 22.4414 65.0311 22.4359 65.0305 22.4304C64.7803 20.5469 63.9264 18.8061 62.5604 17.4402C61.7023 16.5826 60.7086 15.9424 59.6485 15.5182C60.5615 13.9111 61.7932 12.2467 63.2581 10.6409L71.5222 18.905L71.0596 40.8429L35.6891 76.2128L3.78723 44.3109L22.6343 25.4639C23.2471 24.8511 23.2471 23.858 22.6343 23.2452C22.0215 22.6324 21.0291 22.6324 20.4157 23.2452L0.459595 43.2019C0.165405 43.4961 0 43.8946 0 44.3109C0 44.7272 0.165405 45.1257 0.459595 45.4199L34.5801 79.5404C34.8865 79.8468 35.2875 80 35.6891 80C36.0907 80 36.4923 79.8468 36.7987 79.5404L73.7238 42.6153C74.0094 42.3291 74.1742 41.9434 74.1828 41.5387L74.6735 18.3014C74.682 17.8741 74.516 17.4615 74.2139 17.1594L73.7988 16.7444C76.142 14.1931 77.9767 11.4642 79.0296 8.94285C80.4242 5.6024 80.3125 2.88267 78.7146 1.28538V1.28538ZM56.405 29.1614C54.9182 29.1614 53.5205 28.5821 52.4689 27.5305C51.4179 26.4795 50.8386 25.0812 50.8386 23.5943C50.8386 22.1075 51.4173 20.7098 52.4689 19.6582C53.2324 18.8946 54.1644 18.4015 55.1459 18.175C54.5215 20.6189 54.848 22.6056 56.1212 23.8788C56.9788 24.7363 58.1537 25.166 59.574 25.166C60.2692 25.166 61.0242 25.0598 61.828 24.8541C61.5967 25.8594 61.0889 26.7828 60.3418 27.5305C59.2902 28.5821 57.8925 29.1614 56.405 29.1614ZM61.6236 21.6504C59.8175 22.2388 58.739 22.0599 58.3399 21.6601C57.8382 21.1584 57.8552 19.9194 58.3502 18.3807C59.0772 18.6505 59.7583 19.0753 60.3418 19.6582C60.9162 20.2325 61.3483 20.9112 61.6236 21.6504ZM76.1341 7.73436C75.2307 9.89744 73.6341 12.2687 71.5778 14.5233L65.4767 8.42161C67.7313 6.36534 70.1019 4.76866 72.2656 3.86534C74.234 3.0438 75.8948 2.90159 76.496 3.5034C77.0984 4.10521 76.9562 5.76597 76.1341 7.73436V7.73436Z" fill="#666666"/>
<path d="M25.3888 43.045C23.7683 44.6654 22.876 46.8194 22.876 49.1112C22.876 50.7311 23.324 52.2808 24.1577 53.6236L22.6074 55.1739C21.9946 55.7867 21.9946 56.7797 22.6074 57.3925C22.9138 57.6989 23.3154 57.8521 23.7164 57.8521C24.118 57.8521 24.5197 57.6989 24.8261 57.3925L26.2732 55.9453C27.7588 57.0702 29.5825 57.6897 31.4594 57.6897C31.5942 57.6897 31.7303 57.6867 31.8658 57.68C34.2719 57.5652 36.4319 56.3793 37.7918 54.4274C39.1016 52.5475 39.4568 50.2172 38.7665 48.034C38.4424 47.0092 37.9028 46.0137 37.1582 45.0603L43.537 38.6809C43.8385 39.3639 43.9984 40.1079 43.9984 40.877C43.9984 42.3302 43.4326 43.6968 42.4048 44.7246C41.792 45.3368 41.792 46.3305 42.4048 46.9433C43.017 47.5555 44.01 47.5561 44.6234 46.9433C46.2433 45.3228 47.1356 43.1682 47.1356 40.877C47.1356 39.2571 46.6882 37.7068 45.8545 36.364L47.4048 34.8138C48.017 34.2016 48.017 33.2079 47.4048 32.5951C46.792 31.9829 45.799 31.9829 45.1862 32.5951L43.7384 34.0429C42.1448 32.8368 40.163 32.21 38.1458 32.3076C35.7397 32.4224 33.5797 33.6083 32.2199 35.5602C30.91 37.4407 30.5554 39.771 31.2451 41.9536C31.5692 42.9784 32.1094 43.9739 32.854 44.9273L26.4746 51.3067C26.1731 50.6237 26.0132 49.8797 26.0132 49.1106C26.0132 47.6574 26.5796 46.2908 27.6074 45.2636C28.2196 44.6508 28.2196 43.6577 27.6074 43.045C26.9946 42.4322 26.0016 42.4322 25.3888 43.045V43.045ZM35.7751 48.98C36.1694 50.2276 35.9668 51.5594 35.2179 52.6342C34.4183 53.7817 33.1427 54.4781 31.7163 54.5464C30.5823 54.6014 29.4666 54.2962 28.5242 53.6944L34.9152 47.3034C35.3076 47.8582 35.5975 48.4191 35.7751 48.98V48.98ZM34.2365 41.0076C33.8422 39.7607 34.0454 38.4289 34.7943 37.3534C35.5933 36.2066 36.8695 35.5096 38.2953 35.4418C39.4281 35.3875 40.5444 35.692 41.4874 36.2939L35.0964 42.6848C34.704 42.1294 34.4141 41.5691 34.2365 41.0076V41.0076Z" fill="#666666"/>
<path d="M24.5422 20.4884C24.7949 21.0994 25.4291 21.4973 26.0889 21.4546C26.7169 21.4143 27.2729 20.9883 27.4756 20.3926C27.6843 19.7804 27.4847 19.0877 26.9855 18.6769C26.4655 18.249 25.7068 18.2051 25.141 18.5701C24.5135 18.9754 24.2566 19.7975 24.5422 20.4884Z" fill="#666666"/>
</svg>
