<svg width="81" height="100" viewBox="0 0 81 100" fill="none" xmlns="http://www.w3.org/2000/svg">
<path d="M50.1008 25.6375C49.7069 25.2291 49.162 25 48.5922 25H31.8296C31.2597 25 30.7148 25.2291 30.321 25.6375C27.2575 28.7916 0.399475 56.8084 0.399475 68.75C0.399475 85.9834 18.2601 100 40.2108 100C62.1614 100 80.0221 85.9834 80.0221 68.75C80.0221 56.8084 53.164 28.7916 50.1008 25.6375ZM40.2108 95.8334C20.5692 95.8334 4.59026 83.6834 4.59026 68.75C4.59026 60.2666 24.3283 37.9084 32.7222 29.1666H47.6995C56.0933 37.9084 75.8313 60.2666 75.8313 68.75C75.8313 83.6834 59.8523 95.8334 40.2108 95.8334Z" fill="#888888"/>
<path d="M56.9734 25H23.4482C22.2916 25 21.3528 25.9334 21.3528 27.0834C21.3528 28.2334 22.2916 29.1668 23.4482 29.1668H56.9735C58.1302 29.1668 59.0689 28.2334 59.0689 27.0834C59.0689 25.9334 58.13 25 56.9734 25Z" fill="#888888"/>
<path d="M66.9262 2.7875C66.3353 2.1209 65.2205 1.325 63.2929 1.325C59.0813 1.325 52.3846 5.375 49.1494 7.5084C46.7608 4.1334 43.2196 0 40.2108 0C37.2019 0 33.6608 4.1334 31.2721 7.5084C28.037 5.375 21.3403 1.325 17.1286 1.325C15.1967 1.325 14.0862 2.1209 13.4953 2.7875C12.544 3.8584 12.1124 5.25 12.2507 6.8166C12.9255 14.5291 28.7241 27.2832 30.5219 28.7125C30.8906 29.0041 31.3558 29.1666 31.8294 29.1666H48.5919C49.0656 29.1666 49.5307 29.0041 49.8994 28.7082C51.6972 27.2832 67.4961 14.5291 68.1706 6.81231C68.3091 5.25 67.8775 3.8584 66.9262 2.7875ZM63.9928 6.4541C63.6115 10.8 54.1279 19.9207 47.8504 25H32.567C26.2936 19.9209 16.8059 10.8 16.4246 6.4541C16.3743 5.8457 16.5588 5.6375 16.6132 5.5666C16.6468 5.5457 16.8059 5.4916 17.1286 5.4916C20.1836 5.4916 27.0187 9.55 30.6058 12.1082C31.0751 12.4416 31.6534 12.5666 32.2109 12.4623C32.7766 12.3539 33.2711 12.0248 33.5812 11.5457C35.9573 7.8873 39.1422 4.3666 40.1479 4.1623C41.2584 4.36641 44.4434 7.8873 46.8236 11.5457C47.1379 12.0248 47.6324 12.3582 48.194 12.4623C48.7638 12.5623 49.338 12.4414 49.8073 12.1082C53.3988 9.5498 60.2336 5.4916 63.2886 5.4916C63.6029 5.4916 63.7663 5.5457 63.7789 5.5457C63.8586 5.6375 64.0472 5.8459 63.9928 6.4541Z" fill="#888888"/>
<path d="M40.6423 66.7119L40.1813 66.6244C35.9152 65.841 33.9247 64.5328 33.9247 62.4994C33.9247 60.241 36.8037 58.3328 40.2148 58.3328C43.5002 58.3328 46.3207 60.0994 46.5049 62.2744C46.6014 63.4203 47.649 64.3203 48.7679 64.1744C49.9204 64.0785 50.7753 63.0703 50.6788 61.9244C50.3017 57.4994 45.805 54.166 40.2148 54.166C34.4359 54.166 29.7339 57.9035 29.7339 62.4994C29.7339 66.7785 32.9901 69.5453 39.7915 70.791L40.2441 70.8744C44.506 71.6578 46.4924 72.966 46.4924 74.9994C46.4924 77.2578 43.6134 79.166 40.2023 79.166C36.921 79.166 34.1007 77.3994 33.9163 75.2244C33.8198 74.0785 32.8225 73.2119 31.6533 73.3244C30.5008 73.4203 29.6459 74.4285 29.7424 75.5744C30.1154 79.9953 34.6162 83.3328 40.2064 83.3328C45.9854 83.3328 50.6873 79.5953 50.6873 74.9994C50.6873 70.7203 47.4311 67.9578 40.6423 66.7119Z" fill="#888888"/>
<path d="M40.2108 50C39.0542 50 38.1154 50.9334 38.1154 52.0834V85.4168C38.1154 86.5668 39.0542 87.5002 40.2108 87.5002C41.3674 87.5002 42.3062 86.5668 42.3062 85.4168V52.0834C42.3062 50.9334 41.3674 50 40.2108 50Z" fill="#888888"/>
</svg>
