<svg width="20" height="18" viewBox="0 0 20 18" fill="none" xmlns="http://www.w3.org/2000/svg">
<path d="M18.88 3.67173C18.5872 2.95322 18.165 2.30211 17.6371 1.75485C17.1088 1.20596 16.4859 0.769759 15.8022 0.469978C15.0934 0.157889 14.333 -0.0018562 13.5654 1.62724e-05C12.4886 1.62724e-05 11.4379 0.312552 10.5248 0.902897C10.3064 1.04412 10.0989 1.19923 9.90228 1.36823C9.70569 1.19923 9.49817 1.04412 9.27974 0.902897C8.36668 0.312552 7.316 1.62724e-05 6.23911 1.62724e-05C5.46366 1.62724e-05 4.71224 0.157442 4.00233 0.469978C3.31644 0.770938 2.69826 1.20386 2.16747 1.75485C1.63884 2.30149 1.21657 2.95275 0.924566 3.67173C0.62094 4.4195 0.465851 5.21358 0.465851 6.0308C0.465851 6.80172 0.614387 7.60505 0.909276 8.42228C1.15611 9.10523 1.50997 9.81364 1.96214 10.529C2.67861 11.6611 3.66375 12.8418 4.88699 14.0387C6.91408 16.0227 8.9215 17.3932 9.00669 17.4488L9.52439 17.8007C9.75374 17.9558 10.0486 17.9558 10.278 17.8007L10.7957 17.4488C10.8809 17.3909 12.8861 16.0227 14.9154 14.0387C16.1386 12.8418 17.1238 11.6611 17.8402 10.529C18.2924 9.81364 18.6484 9.10523 18.8931 8.42228C19.188 7.60505 19.3365 6.80172 19.3365 6.0308C19.3387 5.21358 19.1836 4.4195 18.88 3.67173V3.67173Z" fill="white"/>
</svg>
