<svg width="32" height="32" viewBox="0 0 32 32" fill="none" xmlns="http://www.w3.org/2000/svg">
<path d="M16 19.0625C14.3086 19.0625 12.9375 17.6914 12.9375 16C12.9375 14.3086 14.3086 12.9375 16 12.9375C17.6914 12.9375 19.0625 14.3086 19.0625 16C19.0625 17.6914 17.6914 19.0625 16 19.0625Z" fill="white"/>
<path d="M21.4185 23.1621C21.8174 23.0149 22.1785 22.78 22.4749 22.4749C22.7801 22.1785 23.015 21.8176 23.1622 21.4185C23.2879 21.0947 23.4376 20.6084 23.4783 19.7126C23.5225 18.7437 23.532 18.4531 23.532 16C23.532 13.5466 23.5228 13.2561 23.4786 12.2874C23.4376 11.3916 23.2879 10.905 23.1622 10.5815C23.015 10.1824 22.7801 9.82129 22.4749 9.52515C22.1785 9.21997 21.8177 8.98511 21.4185 8.83765C21.0948 8.71191 20.6082 8.56226 19.7125 8.52148C18.7437 8.47729 18.4532 8.46777 15.9998 8.46777C13.5467 8.46777 13.2562 8.47729 12.2872 8.52148C11.3914 8.56226 10.9051 8.71191 10.5814 8.83765C10.1822 8.98511 9.82135 9.21973 9.52496 9.5249C9.21979 9.82129 8.98492 10.1821 8.83771 10.5813C8.71173 10.905 8.56207 11.3916 8.5213 12.2874C8.47711 13.2561 8.46783 13.5464 8.46783 15.9998C8.46783 18.4534 8.47711 18.7439 8.5213 19.7124C8.56207 20.6082 8.71173 21.0947 8.83771 21.4185C9.14679 22.2197 9.78009 22.853 10.5814 23.1621C10.9051 23.2878 11.3914 23.4375 12.2872 23.4785C13.2562 23.5227 13.5467 23.532 15.9998 23.532C18.4532 23.532 18.7437 23.5227 19.7125 23.4785C20.6082 23.4377 21.0948 23.2881 21.4185 23.1621V23.1621ZM11.2823 16C11.2823 13.3943 13.3943 11.282 16.0001 11.282C18.6058 11.282 20.7178 13.3943 20.7178 16C20.7178 18.6055 18.6058 20.7178 16.0001 20.7178C13.3943 20.7178 11.2823 18.6055 11.2823 16ZM19.8018 20.9043C19.8018 20.2954 20.2955 19.8018 20.9044 19.8018C21.5132 19.8018 22.0069 20.2954 22.0069 20.9043C22.0069 21.5132 21.5132 22.0068 20.9044 22.0068C20.2955 22.0066 19.8018 21.5132 19.8018 20.9043Z" fill="white"/>
<path d="M32 16C32 7.16479 24.8352 0 16 0C7.16479 0 0 7.16479 0 16C0 24.8352 7.16479 32 16 32C24.8352 32 32 24.8352 32 16ZM12.2122 25.1321C11.2341 25.0876 10.5664 24.9321 9.98193 24.7051C8.7478 24.2278 7.77222 23.2522 7.29492 22.0181C7.06787 21.4338 6.9126 20.7659 6.86792 19.7881C6.82324 18.8083 6.8125 18.4954 6.8125 16.0002C6.8125 13.5049 6.82324 13.1921 6.86792 12.2122C6.9126 11.2344 7.06787 10.5664 7.29492 9.98218C7.52563 9.3689 7.88721 8.81372 8.35474 8.35474C8.81348 7.88745 9.3689 7.52588 9.98193 7.29517C10.5662 7.06812 11.2341 6.9126 12.2119 6.86816C13.1919 6.823 13.5049 6.8125 16 6.8125C18.4951 6.8125 18.8081 6.823 19.7878 6.86792C20.7659 6.91235 21.4336 7.06763 22.0181 7.29468C22.6311 7.52539 23.1865 7.88721 23.6453 8.35474C24.1128 8.81348 24.4744 9.3689 24.7051 9.98193C24.9321 10.5664 25.0874 11.2341 25.1321 12.2122C25.1768 13.1919 25.1875 13.5049 25.1875 16C25.1875 18.4951 25.1768 18.8081 25.1318 19.7878C25.0874 20.7659 24.9321 21.4336 24.7053 22.0181C24.4746 22.6311 24.1128 23.1865 23.6453 23.6455C23.1863 24.1128 22.6311 24.4746 22.0181 24.7051C21.4336 24.9324 20.7659 25.0876 19.7878 25.1323C18.8081 25.177 18.4951 25.1875 16 25.1875C13.5049 25.1875 13.1919 25.177 12.2122 25.1321V25.1321Z" fill="white"/>
</svg>
