<svg width="643" height="489" viewBox="0 0 643 489" fill="none" xmlns="http://www.w3.org/2000/svg">
<path fill-rule="evenodd" clip-rule="evenodd" d="M643 0H0V489H643V0ZM22.5 17H28.5L31 18.5H37.5H43.5L45.5 19.5L48.5 20.5H52.5H58L62 21L68.5 20.5H72L76.5 21L104.5 20.5L115.5 22L138 22.5L141.5 20.5L155.5 20L159.5 18.5H185.5H198.5H244.5L260.5 19H277L293 18.5L306 19H312.5H329L336 18.5H341.5L344 20H347H351.5H355.5H359.5L366.5 20.5L373 19L398.5 18.5L428.5 19L447.5 20L456.5 20.5H468.5H479H505H510L517 22.5L522 20.5H533.5H540L550 22H554L562.5 20.5H566.5H572.5H579H588.5L592 19L596.5 20.5L603 19H611.5L615 20.5L618 19L622.5 20.5H629H629.5L628 32L626.5 48L626 63L625 67.5L626 69.5L624.5 71.5L625.5 73L626 85.5L623 89L622.5 98L624.5 101L622.5 103V110.5L624 113L623 114.5L620.5 121L624 125.5L620.5 126L621 132L624 132.5V136L619 141L621 144.5L624 145V148L621 151L622.5 156.5V158.5L620.5 164L619 168V172L617 174L623.5 174.5V177L620.5 180.5L622 183L623 187.5L624.5 189.5L626.5 192L629 192.5L627.5 194.5L622 196.5L623 199.5L627.5 200L626 202.5L622.5 205L623 208L628 209L626 212.5L622.5 216.5L624 221L626 222.5L625 226.5L621 230.5L625.5 233V236L622.5 238L624 240L622.5 245L624.5 248L622.5 250.5L621 253L628 253.5L627.5 256H620L622 258.5L624.5 260.5V263.5L622 266L617.5 267.5L624 269L619 273L624.5 276L622 281.5L627.5 284.5L622 288.5L624.5 292L621 298L627.5 304V315.5L624.5 321.5L627.5 324.5L625.5 330L628 333L626 337.5L627.5 340.5L626 343.5L627.5 345L628 360.5V409L627.5 421L629 450.5L630 470H613L594 468.5L580.5 470H570L537.5 469.5H517.5L509.5 467.5L504 469.5L494.5 467.5L489.5 469.5L486 466.5L480.5 469.5H468.5L464 466.5L459.5 466L455.5 468L453.5 466L449.5 470L447 466.5L443.5 467L441.5 469L436.5 465.5L433 468L432 464.5L426.5 469L423.5 468.5L421 465L414 468L410 466.5L404.5 468.5H400L399 469.5L387 468.5L378 468L372 470.5L369 468L364 471L361.5 468L357.5 471L354.5 468.5H347.5L342.5 468L339 470L335 467.5L327.5 468L317.5 468.5H309L302 468L295 468.5L266 468L264 469.5L258.5 468.5L249 470L237 468.5L230 469.5H185L170.5 471.5H14L19 459.5L18.5 446.5L19.5 422L18.5 403L18 398L20.5 98L21 89L22 84.5L20.5 78.5L22 74.5L20.5 66.5V55.5L22.5 55L21 50.5V44L22.5 36.5V24V17Z" fill="#BB5817"/>
</svg>
