<svg width="32" height="32" viewBox="0 0 32 32" fill="none" xmlns="http://www.w3.org/2000/svg">
<path d="M32 16C32 7.16479 24.8352 0 16 0C7.16479 0 0 7.16479 0 16C0 24.8352 7.16479 32 16 32C24.8352 32 32 24.8352 32 16ZM19.5249 23.3054C19.3674 23.3125 19.2092 23.3159 19.0503 23.3159C14.1975 23.3159 8.60156 19.6221 8.60132 12.8669V12.8672V12.8669C8.60132 10.793 9.20923 8.86304 10.251 7.23779C10.217 7.52515 10.2002 7.81763 10.2002 8.11377C10.2002 9.83447 10.7871 11.418 11.7722 12.675C11.802 11.0674 12.8638 9.71191 14.323 9.24414C14.28 9.46802 14.2566 9.69824 14.2566 9.93433C14.2566 10.2695 14.3018 10.5942 14.386 10.9028C14.7224 9.22241 16.2075 7.95654 17.9858 7.95654C18.0024 7.95654 18.0173 7.95654 18.0327 7.95703C17.7576 8.4519 17.592 9.01782 17.5735 9.62036C18.2314 8.63428 19.3562 7.98608 20.6304 7.98608C21.3032 7.98608 21.9336 8.16797 22.4763 8.4834C20.2542 10.2944 18.7927 13.001 18.6392 16.0532C18.9082 15.9902 19.1885 15.9578 19.4766 15.9578C21.5039 15.9578 23.1487 17.6025 23.1487 19.6306C23.1487 20.687 22.7021 21.6411 21.9883 22.3113C22.1533 23.1479 22.459 23.9336 22.8796 24.6433C22.0225 24.3687 21.3032 23.7866 20.8484 23.0283C20.9373 23.7712 21.1343 24.4792 21.4268 25.1372C20.6902 24.6458 20.0432 24.0225 19.5249 23.3054V23.3054Z" fill="white"/>
</svg>
