<svg width="32" height="32" viewBox="0 0 32 32" fill="none" xmlns="http://www.w3.org/2000/svg">
<path d="M32 16C32 7.16342 24.8366 0 16 0C7.16342 0 2.6077e-07 7.16342 2.6077e-07 16C2.6077e-07 24.8366 7.16342 32 16 32C24.8366 32 32 24.8366 32 16ZM23.8519 22.1041L23.8509 19.8911C23.8509 18.1557 23.0263 17.8202 21.8163 17.8202H19.1483V21.9584L14.9695 21.9564V17.8205H4.24561V13.5042H14.9695V9.89594L19.1483 9.89594V13.5042H22.2301C25.8066 13.5042 27.7544 15.6893 27.7544 18.8795L27.7495 22.1044H23.8519V22.1041Z" fill="white"/>
</svg>
