<svg width="32" height="32" viewBox="0 0 32 32" fill="none" xmlns="http://www.w3.org/2000/svg">
<path d="M32 16C32 7.16479 24.8352 0 16 0C7.16479 0 0 7.16479 0 16C0 24.8352 7.16479 32 16 32C24.8352 32 32 24.8352 32 16ZM6.68433 16.3391C6.68433 16.3389 6.68433 16.3394 6.68433 16.3391V16.3352C6.68506 14.7324 7.08691 13.1575 7.84961 11.7588L6.51831 6.68237L11.4792 8.04102C12.9309 7.20288 14.5779 6.76196 16.2651 6.7627C21.5435 6.76489 25.8376 11.0608 25.8376 16.3391C25.8367 18.9006 24.8396 21.3052 23.0303 23.113C21.2207 24.9211 18.8154 25.9163 16.2576 25.9153C10.979 25.9131 6.68433 21.6167 6.68433 16.3391V16.3391Z" fill="white"/>
<path d="M24.2207 16.3423C24.2207 11.9519 20.6516 8.38135 16.2644 8.37939C14.761 8.37891 13.2969 8.79981 12.03 9.59644L11.729 9.78565L8.79272 8.98145L9.58276 11.9939L9.4104 12.2847C8.6853 13.5066 8.30176 14.9075 8.30127 16.3357V16.3389C8.30127 20.7258 11.8706 24.2964 16.2581 24.2984C18.3843 24.2991 20.3833 23.4719 21.8872 21.9693C23.3911 20.4666 24.22 18.468 24.2207 16.3423V16.3423ZM12.8435 21.0239C12.2849 20.8245 11.7749 19.8687 11.7061 19.4089C11.6445 18.9966 11.6189 18.4751 11.8008 17.9019C11.9111 17.5542 12.0583 17.1087 12.3047 16.5376C13.3408 14.1375 15.7568 12.5698 15.9165 12.4502C16.0762 12.3306 17.2136 11.4731 18.3911 11.4731C19.5684 11.4731 20.1472 12.0913 20.3865 12.3106C20.626 12.53 20.6858 12.7893 20.6858 12.9487C20.6858 13.1082 20.6843 13.2678 20.6775 13.4072C20.6702 13.5542 20.7334 13.7515 20.2668 13.9456C19.7878 14.145 18.6106 14.6235 18.491 14.6834C18.3711 14.7432 18.2314 14.783 18.0718 14.7034C17.9121 14.6235 17.5676 14.3584 17.2537 14.1052C17.1221 13.999 17.0049 13.8606 16.7654 14.0002C16.5261 14.1397 15.7427 14.6201 15.1084 15.3313C14.2935 16.2454 14.041 17.0164 13.9211 17.2556C13.8015 17.4946 13.8215 17.6343 13.981 17.7739C14.1406 17.9133 14.6794 18.3721 14.9189 18.5315C15.1584 18.6909 15.1184 18.8506 15.0386 19.0698C14.959 19.2893 14.3801 20.4656 14.2605 20.7048C14.1406 20.9441 14.0808 21.1035 13.981 21.1633C13.8811 21.2234 13.4023 21.2234 12.8435 21.0239V21.0239Z" fill="white"/>
</svg>
